<svg width="105" height="62" viewBox="0 0 105 62" fill="none" xmlns="http://www.w3.org/2000/svg">
<path d="M94.7662 20.2679L101.473 31.8212C101.854 32.4713 102.44 32.7432 103.064 32.7432C103.996 32.7432 104.966 32.059 104.966 30.8969L105 7.79274C105 6.63062 104.067 5.91251 103.132 5.91251C102.509 5.91251 101.888 6.22059 101.508 6.86848L94.7662 18.3877C94.5944 18.6618 94.5233 19.0039 94.5233 19.3097C94.5256 19.654 94.5944 19.9599 94.7662 20.2679Z" fill="#2FC18C"/>
<path d="M87.8185 24.1983L94.5601 35.7175C94.7319 36.0256 94.8373 36.3677 94.8373 36.6735C94.8373 37.6657 93.9391 38.5198 92.9354 38.5198C92.6238 38.5198 92.3121 38.4518 92.0028 38.2796L71.7782 26.6924C71.1206 26.3164 70.8456 25.7002 70.8456 25.1203C70.8456 24.1643 71.572 23.2061 72.7475 23.2061L86.1962 23.274C86.8836 23.2763 87.5069 23.6184 87.8185 24.1983Z" fill="#2FC18C"/>
<path d="M86.1595 15.2435H72.7085C71.533 15.2435 70.8409 14.3215 70.8409 13.3972C70.8409 12.781 71.1182 12.1671 71.7736 11.7911L92.0325 0.27184C92.3464 0.10194 92.6925 0 93.0041 0C94.0078 0 94.8717 0.854032 94.8717 1.88023C94.8717 2.18832 94.7685 2.4964 94.5944 2.80222L87.7841 14.3215C87.4381 14.9014 86.8492 15.2435 86.1595 15.2435Z" fill="#2FC18C"/>
<path d="M78.6549 49.8306C78.6549 44.2669 75.6049 41.322 70.4835 41.322C65.6531 41.322 62.0577 44.5161 62.0577 49.7219C62.0577 55.3218 66.1251 58.0153 71.3543 58.0153C73.6412 58.0153 76.148 57.5486 78.6526 56.5428L77.9262 52.5943C76.1114 53.4914 73.9688 53.9943 72.0807 53.9943C68.9574 53.9943 67.1494 52.8322 66.753 50.6552H78.6526C78.6549 50.6552 78.6549 49.9008 78.6549 49.8306ZM70.4858 44.8401C72.5229 44.8401 73.7695 45.9591 74.0994 48.0342H66.8263C67.2411 45.9818 68.4991 44.8401 70.4858 44.8401Z" fill="white"/>
<path d="M52.4381 41.322C50.4468 41.322 48.5082 42.2191 47.209 43.5556V36.0438H47.1723L42.4885 37.8379V57.6551H47.209V55.7114C48.5586 57.1454 50.5156 58.0152 52.4748 58.0152C57.1219 58.0152 60.1375 54.3884 60.1375 49.6154C60.1352 44.7313 57.0119 41.322 52.4381 41.322ZM51.1663 53.958C48.6251 53.958 47.1356 52.2341 47.1356 49.6154C47.1356 46.9944 48.6251 45.2002 51.1663 45.2002C53.5632 45.2002 55.1237 46.9944 55.1237 49.6154C55.1237 52.2341 53.5632 53.958 51.1663 53.958Z" fill="white"/>
<path d="M32.1747 51.6247L35.4423 41.6799H40.7448L32.6467 62H27.3809L29.6311 56.903L23.9299 41.6799H29.2324L32.1747 51.6247Z" fill="white"/>
<path d="M16.8858 44.122C17.8299 42.6132 19.3561 41.6459 21.533 41.6459L23.2401 46.1336L23.2035 46.1698C22.7681 45.9546 22.0417 45.8119 21.1709 45.8119C18.3753 45.8119 16.8858 47.6785 16.8858 50.406V57.6574H12.1654V41.6822H16.8858V44.122Z" fill="white"/>
<path d="M4.72044 36.0438V41.6799H9.44088V45.6284H4.72044V51.6587C4.72044 53.3827 5.84555 53.992 7.08066 53.992C7.91476 53.992 8.75115 53.7406 9.40422 53.3464H9.44088V57.2587C8.53346 57.6891 6.82631 58.013 5.62786 58.013C2.17919 58.0153 0 55.7885 0 52.3791V37.8402L4.68378 36.046H4.72044V36.0438Z" fill="white"/>
</svg>
